<mxfile host="app.diagrams.net" modified="2024-02-27T22:24:10.958Z" agent="Mozilla/5.0 (Windows NT 10.0; Win64; x64; rv:123.0) Gecko/20100101 Firefox/123.0" etag="heUglJoCAtC0ksuZ2AML" version="23.1.6" type="device">
  <diagram name="Page-1" id="TmDt9XGM6VzQtZlpyaEq">
    <mxGraphModel dx="617" dy="1153" grid="1" gridSize="10" guides="1" tooltips="1" connect="1" arrows="1" fold="1" page="1" pageScale="1" pageWidth="827" pageHeight="1169" math="0" shadow="0">
      <root>
        <mxCell id="0" />
        <mxCell id="1" parent="0" />
        <mxCell id="0ws95KaB-2t9atwoKgnw-23" value="" style="rounded=0;whiteSpace=wrap;html=1;fillColor=#E0F4FF;" parent="1" vertex="1">
          <mxGeometry x="100" y="220" width="550" height="720" as="geometry" />
        </mxCell>
        <mxCell id="0ws95KaB-2t9atwoKgnw-8" value="#E0F4FF" style="rounded=0;whiteSpace=wrap;html=1;strokeColor=none;fillColor=#E0F4FF;" parent="1" vertex="1">
          <mxGeometry x="590" y="220" width="60" height="720" as="geometry" />
        </mxCell>
        <mxCell id="0ws95KaB-2t9atwoKgnw-9" value="&lt;div align=&quot;left&quot; style=&quot;font-size: 16px;&quot;&gt;&lt;font color=&quot;#39a7ff&quot; style=&quot;font-size: 16px;&quot;&gt;&lt;span style=&quot;white-space: pre;&quot;&gt;&#x9;&lt;/span&gt;&lt;span style=&quot;white-space: pre;&quot;&gt;&#x9;HOME&lt;/span&gt;&lt;/font&gt;&lt;font color=&quot;#39a7ff&quot; style=&quot;font-size: 16px;&quot;&gt; &lt;span style=&quot;white-space: pre;&quot;&gt;&#x9;&lt;/span&gt;&lt;/font&gt;&lt;font color=&quot;#ffffff&quot;&gt;SHOP&lt;/font&gt;&lt;font color=&quot;#ffffff&quot; style=&quot;font-size: 16px;&quot;&gt; &lt;span style=&quot;white-space: pre;&quot;&gt;&#x9;&lt;/span&gt;&lt;/font&gt;&lt;font color=&quot;#39a7ff&quot;&gt;FUN&lt;/font&gt;&lt;font color=&quot;#39a7ff&quot; style=&quot;font-size: 16px;&quot;&gt; &lt;span style=&quot;white-space: pre;&quot;&gt;&#x9;CONTACT&lt;/span&gt;&lt;br style=&quot;font-size: 16px;&quot;&gt;&lt;/font&gt;&lt;/div&gt;" style="rounded=0;whiteSpace=wrap;html=1;fillColor=#FFC938;fontSize=16;fontColor=#416D19;" parent="1" vertex="1">
          <mxGeometry x="100" y="160" width="550" height="60" as="geometry" />
        </mxCell>
        <mxCell id="0ws95KaB-2t9atwoKgnw-10" value="Logo" style="rounded=0;whiteSpace=wrap;html=1;strokeColor=none;fillColor=none;" parent="1" vertex="1">
          <mxGeometry x="100" y="160" width="120" height="60" as="geometry" />
        </mxCell>
        <mxCell id="0ws95KaB-2t9atwoKgnw-19" value="&lt;font color=&quot;#ffffff&quot; size=&quot;1&quot;&gt;&lt;b style=&quot;font-size: 14px;&quot;&gt;&lt;br&gt;Cafe&lt;br&gt;&lt;br&gt;&lt;/b&gt;&lt;/font&gt;&lt;font color=&quot;#ffffff&quot;&gt;&lt;b&gt;Enjoy some of our fresh products from the shop in the cafe:&lt;/b&gt;&lt;font size=&quot;1&quot;&gt;&lt;b style=&quot;font-size: 14px;&quot;&gt;&lt;br&gt;&lt;br&gt;&lt;/b&gt;&lt;/font&gt;fresh eggs&lt;span style=&quot;white-space: pre;&quot;&gt;&#x9;&lt;/span&gt;£3.00&lt;span style=&quot;white-space: pre;&quot;&gt;&#x9;&lt;/span&gt;&lt;span style=&quot;white-space: pre;&quot;&gt;&#x9;&lt;/span&gt;&lt;span style=&quot;white-space: pre;&quot;&gt;&#x9;&lt;/span&gt;&lt;span style=&quot;white-space: pre;&quot;&gt;&#x9;&lt;/span&gt;&lt;span style=&quot;white-space: pre;&quot;&gt;&#x9;&lt;/span&gt;&lt;span style=&quot;white-space: pre;&quot;&gt;&#x9;&lt;/span&gt;&lt;span style=&quot;white-space: pre;&quot;&gt;&#x9;&lt;/span&gt;Lorem ipsum&lt;span style=&quot;white-space: pre;&quot;&gt;&#x9;&lt;/span&gt;£1.00 &lt;br&gt;milk&lt;span style=&quot;white-space: pre;&quot;&gt;&#x9;&lt;/span&gt;&lt;span style=&quot;white-space: pre;&quot;&gt;&#x9;&lt;/span&gt;£1.20&lt;span style=&quot;white-space: pre;&quot;&gt;&#x9;&lt;/span&gt;&lt;span style=&quot;white-space: pre;&quot;&gt;&#x9;&lt;/span&gt;&lt;span style=&quot;white-space: pre;&quot;&gt;&#x9;&lt;/span&gt;&lt;span style=&quot;white-space: pre;&quot;&gt;&#x9;&lt;/span&gt;&lt;span style=&quot;white-space: pre;&quot;&gt;&#x9;&lt;/span&gt;&lt;span style=&quot;white-space: pre;&quot;&gt;&#x9;&lt;/span&gt;&lt;span style=&quot;white-space: pre;&quot;&gt;&#x9;Lorem ipsum&lt;span style=&quot;white-space: pre;&quot;&gt;&#x9;&lt;/span&gt;£1.00&lt;/span&gt;&lt;br&gt;yogurt&lt;span style=&quot;white-space: pre;&quot;&gt;&#x9;&lt;/span&gt;&lt;span style=&quot;white-space: pre;&quot;&gt;&#x9;&lt;/span&gt;£1.50&lt;span style=&quot;white-space: pre;&quot;&gt;&#x9;&lt;/span&gt;&lt;span style=&quot;white-space: pre;&quot;&gt;&#x9;&lt;/span&gt;&lt;span style=&quot;white-space: pre;&quot;&gt;&#x9;&lt;/span&gt;&lt;span style=&quot;white-space: pre;&quot;&gt;&#x9;&lt;/span&gt;&lt;span style=&quot;white-space: pre;&quot;&gt;&#x9;&lt;/span&gt;&lt;span style=&quot;white-space: pre;&quot;&gt;&#x9;&lt;/span&gt;&lt;span style=&quot;white-space: pre;&quot;&gt;&#x9;&lt;/span&gt;Lorem ipsum&lt;span style=&quot;white-space: pre;&quot;&gt;&#x9;&lt;/span&gt;£1.00&lt;br&gt;cheese&lt;span style=&quot;white-space: pre;&quot;&gt;&#x9;&lt;/span&gt;&lt;span style=&quot;white-space: pre;&quot;&gt;&#x9;&lt;/span&gt;£2.00&lt;span style=&quot;white-space: pre;&quot;&gt;&#x9;&lt;/span&gt;&lt;span style=&quot;white-space: pre;&quot;&gt;&#x9;&lt;/span&gt;&lt;span style=&quot;white-space: pre;&quot;&gt;&#x9;&lt;/span&gt;&lt;span style=&quot;white-space: pre;&quot;&gt;&#x9;&lt;/span&gt;&lt;span style=&quot;white-space: pre;&quot;&gt;&#x9;&lt;/span&gt;&lt;span style=&quot;white-space: pre;&quot;&gt;&#x9;&lt;/span&gt;&lt;span style=&quot;white-space: pre;&quot;&gt;&#x9;&lt;/span&gt;Lorem ipsum&lt;span style=&quot;white-space: pre;&quot;&gt;&#x9;&lt;/span&gt;£1.00&lt;br&gt;bread&lt;span style=&quot;white-space: pre;&quot;&gt;&#x9;&lt;/span&gt;&lt;span style=&quot;white-space: pre;&quot;&gt;&#x9;&lt;/span&gt;£1.00&lt;span style=&quot;white-space: pre;&quot;&gt;&#x9;&lt;/span&gt;&lt;span style=&quot;white-space: pre;&quot;&gt;&#x9;&lt;/span&gt;&lt;span style=&quot;white-space: pre;&quot;&gt;&#x9;&lt;/span&gt;&lt;span style=&quot;white-space: pre;&quot;&gt;&#x9;&lt;/span&gt;&lt;span style=&quot;white-space: pre;&quot;&gt;&#x9;&lt;/span&gt;&lt;span style=&quot;white-space: pre;&quot;&gt;&#x9;&lt;/span&gt;&lt;span style=&quot;white-space: pre;&quot;&gt;&#x9;&lt;/span&gt;Lorem ipsum&lt;span style=&quot;white-space: pre;&quot;&gt;&#x9;&lt;/span&gt;£1.00&lt;br&gt;cakes&lt;span style=&quot;white-space: pre;&quot;&gt;&#x9;&lt;/span&gt;&lt;span style=&quot;white-space: pre;&quot;&gt;&#x9;&lt;/span&gt;£1.25&lt;span style=&quot;white-space: pre;&quot;&gt;&#x9;&lt;/span&gt;&lt;span style=&quot;white-space: pre;&quot;&gt;&#x9;&lt;/span&gt;&lt;span style=&quot;white-space: pre;&quot;&gt;&#x9;&lt;/span&gt;&lt;span style=&quot;white-space: pre;&quot;&gt;&#x9;&lt;/span&gt;&lt;span style=&quot;white-space: pre;&quot;&gt;&#x9;&lt;/span&gt;&lt;span style=&quot;white-space: pre;&quot;&gt;&#x9;&lt;/span&gt;&lt;span style=&quot;white-space: pre;&quot;&gt;&#x9;&lt;/span&gt;Lorem ipsum&lt;span style=&quot;white-space: pre;&quot;&gt;&#x9;&lt;/span&gt;£1.00&lt;br&gt;&lt;br&gt;&lt;/font&gt;&lt;div align=&quot;center&quot;&gt;&lt;font color=&quot;#ffffff&quot;&gt;Cafe opening times:&lt;br&gt;&lt;br&gt;Mon-Fri&lt;span style=&quot;white-space: pre;&quot;&gt;&#x9;&lt;/span&gt;&lt;span style=&quot;white-space: pre;&quot;&gt;&#x9;&lt;/span&gt;9:00 - 16:00&lt;br&gt;Sat&lt;span style=&quot;white-space: pre;&quot;&gt;&#x9;&lt;/span&gt;&lt;span style=&quot;white-space: pre;&quot;&gt;&#x9;&lt;/span&gt;&lt;span style=&quot;white-space: pre;&quot;&gt;&#x9;&lt;/span&gt;9:00 - 17:00&lt;br&gt;Sun&lt;span style=&quot;white-space: pre;&quot;&gt;&#x9;&lt;/span&gt;&lt;span style=&quot;white-space: pre;&quot;&gt;&#x9;&lt;/span&gt;9:00 - 15:00&lt;br&gt;&lt;/font&gt;&lt;/div&gt;&lt;font color=&quot;#ffffff&quot;&gt;&lt;br&gt;&lt;/font&gt;&lt;div&gt;&lt;font color=&quot;#ffffff&quot;&gt;&lt;br&gt;&lt;/font&gt;&lt;/div&gt;" style="rounded=0;whiteSpace=wrap;html=1;verticalAlign=top;align=left;fillColor=#39A7FF;strokeColor=none;" parent="1" vertex="1">
          <mxGeometry x="160" y="230" width="430" height="270" as="geometry" />
        </mxCell>
        <mxCell id="0ws95KaB-2t9atwoKgnw-25" value="#FFC938" style="rounded=0;whiteSpace=wrap;html=1;fillColor=#FFC938;strokeColor=none;" parent="1" vertex="1">
          <mxGeometry x="590" y="165" width="60" height="50" as="geometry" />
        </mxCell>
        <mxCell id="0ws95KaB-2t9atwoKgnw-27" value="" style="rounded=0;whiteSpace=wrap;html=1;" parent="1" vertex="1">
          <mxGeometry x="160" y="510" width="430" height="110" as="geometry" />
        </mxCell>
        <mxCell id="0ws95KaB-2t9atwoKgnw-28" value="" style="endArrow=none;html=1;rounded=0;exitX=0;exitY=0;exitDx=0;exitDy=0;entryX=1;entryY=1;entryDx=0;entryDy=0;" parent="1" source="0ws95KaB-2t9atwoKgnw-27" target="0ws95KaB-2t9atwoKgnw-27" edge="1">
          <mxGeometry width="50" height="50" relative="1" as="geometry">
            <mxPoint x="340" y="510" as="sourcePoint" />
            <mxPoint x="390" y="460" as="targetPoint" />
          </mxGeometry>
        </mxCell>
        <mxCell id="0ws95KaB-2t9atwoKgnw-29" value="" style="endArrow=none;html=1;rounded=0;exitX=0;exitY=1;exitDx=0;exitDy=0;entryX=1;entryY=0;entryDx=0;entryDy=0;" parent="1" source="0ws95KaB-2t9atwoKgnw-27" target="0ws95KaB-2t9atwoKgnw-27" edge="1">
          <mxGeometry width="50" height="50" relative="1" as="geometry">
            <mxPoint x="89.99999999999989" y="600" as="sourcePoint" />
            <mxPoint x="530" y="610" as="targetPoint" />
          </mxGeometry>
        </mxCell>
        <mxCell id="0ws95KaB-2t9atwoKgnw-32" value="" style="endArrow=none;dashed=1;html=1;rounded=0;" parent="1" edge="1">
          <mxGeometry width="50" height="50" relative="1" as="geometry">
            <mxPoint x="55" y="620" as="sourcePoint" />
            <mxPoint x="695" y="620" as="targetPoint" />
          </mxGeometry>
        </mxCell>
        <mxCell id="0ws95KaB-2t9atwoKgnw-33" value="fold" style="rounded=0;whiteSpace=wrap;html=1;strokeColor=none;fillColor=none;" parent="1" vertex="1">
          <mxGeometry x="40" y="590" width="50" height="30" as="geometry" />
        </mxCell>
        <mxCell id="LlhT0cMFiizDyWCZ6gN1-1" value="#39A7FF" style="rounded=0;whiteSpace=wrap;html=1;fillColor=#39A7FF;strokeColor=none;" parent="1" vertex="1">
          <mxGeometry x="520" y="240" width="60" height="50" as="geometry" />
        </mxCell>
        <mxCell id="0ws95KaB-2t9atwoKgnw-30" value="&lt;font color=&quot;#ffffff&quot; size=&quot;1&quot;&gt;&lt;b style=&quot;font-size: 14px;&quot;&gt;&lt;br&gt;Shop&lt;br&gt;&lt;br&gt;&lt;/b&gt;&lt;/font&gt;&lt;font color=&quot;#ffffff&quot;&gt;&lt;b&gt;Shop description:&lt;br&gt;&lt;/b&gt;&lt;/font&gt;&lt;div id=&quot;lipsum&quot;&gt;&lt;font color=&quot;#ffffff&quot;&gt;Lorem ipsum dolor sit amet, consectetur adipiscing elit. Maecenas rutrum dignissim eros id congue. Integer congue turpis accumsan bibendum dignissim. Nullam non dignissim magna. Praesent nisi nisi, tristique in elementum vulputate, placerat eget dolor. Aenean at lectus nec libero tempus ornare vehicula vel nisi. &lt;br&gt;&lt;/font&gt;&lt;p&gt;&lt;font color=&quot;#ffffff&quot;&gt;&lt;b&gt;Products:&lt;/b&gt;&lt;/font&gt;&lt;/p&gt;&lt;p&gt;&lt;font color=&quot;#ffffff&quot;&gt;Praesent facilisis, dolor et finibus dictum, nisi mauris porta mauris, &lt;br&gt;vel mattis massa mi vitae ex. Duis dui diam, lacinia ut blandit vel, &lt;br&gt;venenatis eget nunc. Curabitur hendrerit nunc sed mauris interdum &lt;br&gt;consequat. Duis eu imperdiet est, quis ornare ex. Maecenas rutrum diam &lt;br&gt;tortor, sit amet maximus elit luctus non acinia non. &lt;br&gt;&lt;/font&gt;&lt;/p&gt;&lt;/div&gt;&lt;font color=&quot;#ffffff&quot;&gt;&lt;br&gt;&lt;br&gt;&lt;/font&gt;&lt;div&gt;&lt;font color=&quot;#ffffff&quot;&gt;&lt;br&gt;&lt;/font&gt;&lt;/div&gt;" style="rounded=0;whiteSpace=wrap;html=1;verticalAlign=top;align=left;fillColor=#39A7FF;strokeColor=none;" parent="1" vertex="1">
          <mxGeometry x="160" y="630" width="430" height="270" as="geometry" />
        </mxCell>
        <mxCell id="0lf-IBoPSggxNzyNt4II-1" value="Font:&lt;br&gt;&lt;span style=&quot;white-space: pre;&quot;&gt;&#x9;&lt;/span&gt;- Lemon&lt;br&gt;&lt;span style=&quot;white-space: pre;&quot;&gt;&#x9;&lt;/span&gt;- Roboto" style="rounded=0;whiteSpace=wrap;html=1;align=left;verticalAlign=top;fontStyle=0" parent="1" vertex="1">
          <mxGeometry x="320" y="70" width="100" height="70" as="geometry" />
        </mxCell>
        <mxCell id="0lf-IBoPSggxNzyNt4II-2" value="Colours:&lt;span style=&quot;&quot;&gt; &lt;br&gt;#39A7FF&lt;/span&gt;&lt;br&gt;#FFC938&lt;br&gt;#E0F4FF" style="rounded=0;whiteSpace=wrap;html=1;align=left;verticalAlign=top;fontStyle=0" parent="1" vertex="1">
          <mxGeometry x="550" y="70" width="100" height="70" as="geometry" />
        </mxCell>
        <mxCell id="0lf-IBoPSggxNzyNt4II-3" value="" style="group" parent="1" vertex="1" connectable="0">
          <mxGeometry x="100" y="70" width="100" height="70" as="geometry" />
        </mxCell>
        <mxCell id="0lf-IBoPSggxNzyNt4II-4" value="Shop" style="rounded=0;whiteSpace=wrap;html=1;align=center;verticalAlign=middle;" parent="0lf-IBoPSggxNzyNt4II-3" vertex="1">
          <mxGeometry width="100" height="70" as="geometry" />
        </mxCell>
        <mxCell id="0lf-IBoPSggxNzyNt4II-5" value="Abbington Farm" style="rounded=0;whiteSpace=wrap;html=1;strokeColor=none;fillColor=none;" parent="0lf-IBoPSggxNzyNt4II-3" vertex="1">
          <mxGeometry x="5" width="90" height="17.5" as="geometry" />
        </mxCell>
        <mxCell id="Jr-u3rOe_BaHlFGykeyt-1" value="&lt;font&gt;&lt;br&gt;&lt;/font&gt;&lt;p&gt;&lt;font&gt;© Copyright 2024 Abbington Farm&lt;span style=&quot;white-space: pre;&quot;&gt;&#x9;&lt;/span&gt;&lt;span style=&quot;white-space: pre;&quot;&gt;&#x9;&lt;/span&gt;Created by Gary Siu&lt;br&gt;&lt;/font&gt;&lt;/p&gt;" style="rounded=0;whiteSpace=wrap;html=1;verticalAlign=middle;align=center;fillColor=#39A7FF;strokeColor=none;fontColor=#FFFFFF;" vertex="1" parent="1">
          <mxGeometry x="100" y="900" width="550" height="40" as="geometry" />
        </mxCell>
      </root>
    </mxGraphModel>
  </diagram>
</mxfile>
